<svg width="754" height="278" viewBox="0 0 754 278" fill="none" xmlns="http://www.w3.org/2000/svg">
<rect x="362.6" y="0.6" width="148.8" height="262.8" rx="7.4" fill="white" stroke="#292839" stroke-width="1.2"/>
<path d="M362.5 18H511.5" stroke="#292839" stroke-width="1.2"/>
<path d="M362.5 35H511.5" stroke="#292839" stroke-width="1.2"/>
<path d="M362.5 130H511.5" stroke="#292839" stroke-width="1.2"/>
<path d="M362.5 246H511.5" stroke="#292839" stroke-width="1.2"/>
<path d="M362.5 113H511.5" stroke="#292839" stroke-width="1.2"/>
<path d="M362.5 229H511.5" stroke="#292839" stroke-width="1.2"/>
<circle cx="374.5" cy="9.5" r="2.9" fill="white" stroke="#292839" stroke-width="1.2"/>
<circle cx="374.5" cy="26.5" r="2.9" fill="white" stroke="#292839" stroke-width="1.2"/>
<circle cx="374.5" cy="121.5" r="2.9" fill="white" stroke="#292839" stroke-width="1.2"/>
<circle cx="374.5" cy="237.5" r="2.9" fill="#292839" stroke="#292839" stroke-width="1.2"/>
<circle cx="384.5" cy="9.5" r="2.9" fill="white" stroke="#292839" stroke-width="1.2"/>
<circle cx="384.5" cy="26.5" r="2.9" fill="white" stroke="#292839" stroke-width="1.2"/>
<circle cx="384.5" cy="121.5" r="2.9" fill="white" stroke="#292839" stroke-width="1.2"/>
<circle cx="384.5" cy="237.5" r="2.9" fill="white" stroke="#292839" stroke-width="1.2"/>
<circle cx="394.5" cy="9.5" r="2.9" fill="white" stroke="#292839" stroke-width="1.2"/>
<circle cx="394.5" cy="26.5" r="2.9" fill="#292839" stroke="#292839" stroke-width="1.2"/>
<circle cx="394.5" cy="121.5" r="2.9" fill="white" stroke="#292839" stroke-width="1.2"/>
<circle cx="394.5" cy="237.5" r="2.9" fill="white" stroke="#292839" stroke-width="1.2"/>
<rect x="371.6" y="42.6" width="25.8" height="6.8" rx="1.4" fill="white" stroke="#292839" stroke-width="1.2"/>
<rect x="371.6" y="55.6" width="25.8" height="6.8" rx="1.4" fill="white" stroke="#292839" stroke-width="1.2"/>
<rect x="371.6" y="68.6" width="25.8" height="6.8" rx="1.4" fill="white" stroke="#292839" stroke-width="1.2"/>
<rect x="371.6" y="81.6" width="25.8" height="6.8" rx="1.4" fill="#292839" stroke="#292839" stroke-width="1.2"/>
<rect x="371.6" y="94.6" width="25.8" height="6.8" rx="1.4" fill="white" stroke="#292839" stroke-width="1.2"/>
<rect x="371.6" y="138.6" width="25.8" height="6.8" rx="1.4" fill="white" stroke="#292839" stroke-width="1.2"/>
<rect x="371.6" y="151.6" width="25.8" height="6.8" rx="1.4" fill="white" stroke="#292839" stroke-width="1.2"/>
<rect x="371.6" y="164.6" width="25.8" height="6.8" rx="1.4" fill="white" stroke="#292839" stroke-width="1.2"/>
<rect x="371.6" y="177.6" width="25.8" height="6.8" rx="1.4" fill="white" stroke="#292839" stroke-width="1.2"/>
<rect x="371.6" y="190.6" width="25.8" height="6.8" rx="1.4" fill="white" stroke="#292839" stroke-width="1.2"/>
<rect x="371.6" y="203.6" width="25.8" height="6.8" rx="1.4" fill="white" stroke="#292839" stroke-width="1.2"/>
<rect x="371.6" y="216.6" width="25.8" height="6.8" rx="1.4" fill="white" stroke="#292839" stroke-width="1.2"/>
<rect x="371.6" y="251.6" width="25.8" height="6.8" rx="1.4" fill="#292839" stroke="#292839" stroke-width="1.2"/>
<rect x="408.6" y="42.6" width="93.8" height="6.8" rx="1.4" fill="white" stroke="#292839" stroke-width="1.2"/>
<rect x="408.6" y="55.6" width="93.8" height="6.8" rx="1.4" fill="white" stroke="#292839" stroke-width="1.2"/>
<rect x="408.6" y="68.6" width="93.8" height="6.8" rx="1.4" fill="white" stroke="#292839" stroke-width="1.2"/>
<rect x="408.6" y="81.6" width="93.8" height="6.8" rx="1.4" fill="white" stroke="#292839" stroke-width="1.2"/>
<rect x="408.6" y="94.6" width="93.8" height="6.8" rx="1.4" fill="white" stroke="#292839" stroke-width="1.2"/>
<rect x="408.6" y="138.6" width="93.8" height="6.8" rx="1.4" fill="white" stroke="#292839" stroke-width="1.2"/>
<rect x="408.6" y="151.6" width="93.8" height="6.8" rx="1.4" fill="white" stroke="#292839" stroke-width="1.2"/>
<rect x="408.6" y="164.6" width="93.8" height="6.8" rx="1.4" fill="white" stroke="#292839" stroke-width="1.2"/>
<rect x="408.6" y="177.6" width="93.8" height="6.8" rx="1.4" fill="#292839" stroke="#292839" stroke-width="1.2"/>
<rect x="408.6" y="190.6" width="93.8" height="6.8" rx="1.4" fill="white" stroke="#292839" stroke-width="1.2"/>
<rect x="408.6" y="203.6" width="93.8" height="6.8" rx="1.4" fill="white" stroke="#292839" stroke-width="1.2"/>
<rect x="408.6" y="216.6" width="93.8" height="6.8" rx="1.4" fill="#292839" stroke="#292839" stroke-width="1.2"/>
<rect x="408.6" y="251.6" width="93.8" height="6.8" rx="1.4" fill="white" stroke="#292839" stroke-width="1.2"/>
<path d="M481 263.5H753" stroke="#292839" stroke-width="1.2" stroke-linecap="round"/>
<path d="M1 263.5H125" stroke="#292839" stroke-width="1.2" stroke-linecap="round"/>
<path d="M362.5 88L359.555 90.5946C348.028 100.749 341.175 115.184 340.668 130.538C339.78 157.441 338.5 200.408 338.5 224.5C338.5 272.5 221.5 279.5 216.5 259C211.667 239.186 278.643 243.548 261.5 232.5C239 218 165.5 270.5 165.5 270.5" stroke="#292839" stroke-width="1.2" stroke-linecap="round"/>
<path d="M362 67.5C362 67.5 336.736 73.9914 324.5 103.5C310.29 137.77 313 122 307.5 175.5C303.437 215.024 192.792 166.527 206 204C215.998 232.366 272 197 276.5 235" stroke="#292839" stroke-width="1.2" stroke-linecap="round"/>
<path d="M100.333 119.992L100.822 108.763H136.951V91.3081H83.2449L81.7802 136.47H109.854C113.272 136.47 116.079 137.447 118.276 139.278C120.473 141.109 121.572 143.55 121.572 146.601C121.572 150.019 120.473 152.704 118.276 154.779C116.079 156.854 113.272 157.831 109.854 157.831C106.192 157.831 103.141 156.61 100.699 154.169C98.2583 151.728 96.9156 148.066 96.9156 143.062L77.8743 146.845C78.1184 155.756 81.1699 162.713 87.1508 167.596C93.1318 172.478 100.577 174.919 109.488 174.919C118.764 174.919 126.332 172.356 131.947 166.985C137.562 161.737 140.491 154.901 140.491 146.357C140.491 138.301 137.928 131.954 132.801 127.194C127.675 122.433 120.595 119.992 111.685 119.992H100.333Z" fill="#292839"/>
<path d="M184.311 89.4771C173.447 89.4771 164.781 93.505 158.19 101.317C151.599 109.129 148.303 119.504 148.303 132.198C148.303 145.014 151.599 155.389 158.19 163.201C164.781 171.013 173.447 174.919 184.311 174.919C195.052 174.919 203.84 171.013 210.431 163.201C217.023 155.389 220.44 145.014 220.44 132.198C220.44 119.504 217.023 109.129 210.431 101.317C203.84 93.505 195.052 89.4771 184.311 89.4771ZM184.311 157.22C179.428 157.22 175.644 155.023 172.837 150.507C169.908 145.991 168.565 139.888 168.565 132.198C168.565 124.63 169.908 118.527 172.837 114.011C175.644 109.495 179.428 107.176 184.311 107.176C189.071 107.176 192.855 109.495 195.784 114.011C198.714 118.527 200.178 124.63 200.178 132.198C200.178 139.888 198.714 145.991 195.784 150.507C192.855 155.023 189.071 157.22 184.311 157.22Z" fill="#292839"/>
<path d="M264.87 89.4771C254.007 89.4771 245.341 93.505 238.749 101.317C232.158 109.129 228.863 119.504 228.863 132.198C228.863 145.014 232.158 155.389 238.749 163.201C245.341 171.013 254.007 174.919 264.87 174.919C275.612 174.919 284.4 171.013 290.991 163.201C297.582 155.389 301 145.014 301 132.198C301 119.504 297.582 109.129 290.991 101.317C284.4 93.505 275.612 89.4771 264.87 89.4771ZM264.87 157.22C259.988 157.22 256.204 155.023 253.397 150.507C250.467 145.991 249.125 139.888 249.125 132.198C249.125 124.63 250.467 118.527 253.397 114.011C256.204 109.495 259.988 107.176 264.87 107.176C269.631 107.176 273.414 109.495 276.344 114.011C279.273 118.527 280.738 124.63 280.738 132.198C280.738 139.888 279.273 145.991 276.344 150.507C273.414 155.023 269.631 157.22 264.87 157.22Z" fill="#292839"/>
<path d="M583.315 257.926C581.583 251.511 579.526 243.568 579.526 242.289H567.099L529.885 259.387C529.213 259.695 528.783 260.367 528.783 261.107C528.783 262.152 529.63 263 530.676 263H579.441C582.086 263 584.004 260.479 583.315 257.926Z" fill="#292839" stroke="#292839" stroke-width="1.2"/>
<path d="M568.135 242.289V226.5H582.633L579.526 242.289H568.135Z" fill="white" stroke="#292839" stroke-width="1.2"/>
<path d="M722.2 224.328L706.901 225.719L709.674 248.83C709.874 250.497 709.006 252.109 707.505 252.86L694.5 259.363C693.85 259.688 693.439 260.353 693.439 261.08C693.439 262.14 694.298 263 695.359 263H713.569C715.764 263 717.706 261.577 718.368 259.483L727.421 230.814C728.497 227.408 725.757 224.005 722.2 224.328Z" fill="#292839" stroke="#292839" stroke-width="1.2"/>
<path d="M707 225.5L696.545 224V237.111L708.5 238L707 225.5Z" fill="white" stroke="#292839" stroke-width="1.2"/>
<path d="M565 142.5C582.118 142.253 603.5 126 603.5 126L585.895 107.36L571.241 122.162C571.241 122.162 527.015 108.5 523 103C518.986 97.4996 514.98 70.5301 513 73.4999C510 77.9998 512 102 512 102C512 102 505.612 97.5001 503.5 97.5001C500.5 97.5001 510 114 517 115.5C533.898 119.121 551.472 142.695 565 142.5Z" fill="white" stroke="#292839" stroke-width="1.2"/>
<path d="M638.553 46.4229L645 66.5L638.553 78.5257L626 70.5L628.198 50.5652C628.198 50.5652 616.902 55.7267 615 50.5652C612.265 43.1423 624.5 19.5 624.5 19.5L646.838 29.8538L638.553 46.4229Z" fill="white" stroke="#292839" stroke-width="1.2"/>
<path d="M673.098 68.0838C677.803 79.4239 688.459 104.185 697.5 118.5C700.974 124 667.156 131.018 663 127C650.413 114.832 621.984 123.198 621.984 123.198C621.984 123.198 597 134 597 127C597 113.767 575.288 110.043 585 104C591.924 99.6918 602.704 82.6073 609.683 70.647C612.585 65.6747 622.021 65.1518 627.741 65.8043C629.563 66.0122 631.642 65.9536 634 65.5001C643 62.0989 643 58.5 643 58.5L664.239 61.2638C668.2 61.7793 671.567 64.3944 673.098 68.0838Z" fill="white" stroke="#292839" stroke-width="1.2"/>
<mask id="mask0" mask-type="alpha" maskUnits="userSpaceOnUse" x="581" y="57" width="118" height="73">
<path d="M673.098 68.0838C677.803 79.4239 688.459 104.185 697.5 118.5C700.974 124 667.156 131.018 663 127C650.413 114.832 621.984 123.198 621.984 123.198C621.984 123.198 597 134 597 127C597 113.767 575.288 110.043 585 104C591.924 99.6918 602.704 82.6073 609.683 70.647C612.585 65.6747 622.021 65.1518 627.741 65.8043C629.563 66.0122 631.642 65.9536 634 65.5001C643 62.0989 643 58.5 643 58.5L664.239 61.2638C668.2 61.7793 671.567 64.3944 673.098 68.0838Z" fill="white" stroke="#292839" stroke-width="1.2"/>
</mask>
<g mask="url(#mask0)">
<path d="M682.5 112.5C680 95.9999 667.5 80.6989 667.5 60.4999C667.5 45.5 706 125.5 706 125.5L667.5 130.5C667.5 130.5 683.774 120.911 682.5 112.5Z" fill="#FFE94E"/>
</g>
<path d="M673.098 68.0838C677.803 79.4239 688.459 104.185 697.5 118.5C700.974 124 667.156 131.018 663 127C650.413 114.832 621.984 123.198 621.984 123.198C621.984 123.198 597 134 597 127C597 113.767 575.288 110.043 585 104C591.924 99.6918 602.704 82.6073 609.683 70.647C612.585 65.6747 622.021 65.1518 627.741 65.8043C629.563 66.0122 631.642 65.9536 634 65.5001C643 62.0989 643 58.5 643 58.5L664.239 61.2638C668.2 61.7793 671.567 64.3944 673.098 68.0838Z" stroke="#292839" stroke-width="1.2"/>
<path d="M558 140.5C575 128.855 627.162 143.909 627.162 143.909L613.5 67.5C613.5 67.5 615.885 66.4615 617.5 66C621.984 64.7188 623.484 65.5 623.484 65.5L626.052 85.5398C626.687 90.4921 630.902 94.2017 635.895 94.2017C640.489 94.2017 644.483 91.0479 645.548 86.5786L652 59.5L660.5 61L652.437 89.1218C651.491 92.4208 651.631 95.9364 652.836 99.1497L669.621 143.909L690 148C690 148 700.512 168.848 698.617 182.5C695.91 202 647.874 222.613 647.874 222.613C647.874 222.613 690 218 698.617 218C702.12 218 698.48 222.534 698.617 228C698.748 233.262 702.802 239.447 698.617 240.217C683.5 243 603 270.5 592.5 240.217C587.289 225.189 627.162 187.403 627.162 187.403L588.846 167.727C588.846 167.727 591.142 212 587 228.826C586.145 232.298 580.565 227.624 575.5 228C569.68 228.432 562.352 232.542 563 228C566.472 203.674 544.393 149.82 558 140.5Z" fill="white" stroke="#292839" stroke-width="1.2"/>
<mask id="mask1" mask-type="alpha" maskUnits="userSpaceOnUse" x="552" y="58" width="150" height="197">
<path d="M558 140.5C575 128.855 627.162 143.909 627.162 143.909L613.5 67.5C613.5 67.5 615.885 66.4615 617.5 66C621.984 64.7188 623.484 65.5 623.484 65.5L626.052 85.5398C626.687 90.4921 630.902 94.2017 635.895 94.2017C640.489 94.2017 644.483 91.0479 645.548 86.5786L652 59.5L660.5 61L652.437 89.1218C651.491 92.4208 651.631 95.9364 652.836 99.1497L669.621 143.909L690 148C690 148 700.512 168.848 698.617 182.5C695.91 202 647.874 222.613 647.874 222.613C647.874 222.613 690 218 698.617 218C702.12 218 698.48 222.534 698.617 228C698.748 233.262 702.802 239.447 698.617 240.217C683.5 243 603 270.5 592.5 240.217C587.289 225.189 627.162 187.403 627.162 187.403L588.846 167.727C588.846 167.727 591.142 212 587 228.826C586.145 232.298 580.565 227.624 575.5 228C569.68 228.432 562.352 232.542 563 228C566.472 203.674 544.393 149.82 558 140.5Z" fill="white" stroke="#292839" stroke-width="1.2"/>
</mask>
<g mask="url(#mask1)">
<path d="M560.5 148C565.444 141.078 579 136.5 579 136.5L545.5 139L557.5 232C557.5 232 571.818 237.58 577 232C583.5 225 550.5 162 560.5 148Z" fill="#FFE94E"/>
</g>
<path d="M558 140.5C575 128.855 627.162 143.909 627.162 143.909L613.5 67.5C613.5 67.5 615.885 66.4615 617.5 66C621.984 64.7188 623.484 65.5 623.484 65.5L626.052 85.5398C626.687 90.4921 630.902 94.2017 635.895 94.2017C640.489 94.2017 644.483 91.0479 645.548 86.5786L652 59.5L660.5 61L652.437 89.1218C651.491 92.4208 651.631 95.9364 652.836 99.1497L669.621 143.909L690 148C690 148 700.512 168.848 698.617 182.5C695.91 202 647.874 222.613 647.874 222.613C647.874 222.613 690 218 698.617 218C702.12 218 698.48 222.534 698.617 228C698.748 233.262 702.802 239.447 698.617 240.217C683.5 243 603 270.5 592.5 240.217C587.289 225.189 627.162 187.403 627.162 187.403L588.846 167.727C588.846 167.727 591.142 212 587 228.826C586.145 232.298 580.565 227.624 575.5 228C569.68 228.432 562.352 232.542 563 228C566.472 203.674 544.393 149.82 558 140.5Z" stroke="#292839" stroke-width="1.2"/>
<path d="M617.49 176.842L600.673 144.526C600.673 144.526 603.99 141.022 604.001 138.247C604.017 134.041 596.44 130.576 596.44 130.576L598.349 138.994L593.278 141.124L588.603 133.868C588.603 133.868 585.75 141.729 588.788 144.637C590.904 146.662 596.063 146.462 596.063 146.462L606.953 181.196C607.962 184.414 611.521 186.066 614.63 184.76C617.715 183.464 619.035 179.81 617.49 176.842Z" fill="#292839" stroke="#292839" stroke-width="1.2"/>
<circle cx="612.116" cy="178.224" r="2.4" transform="rotate(-22.7849 612.116 178.224)" fill="white" stroke="#292839" stroke-width="1.2"/>
<path d="M688.5 150C695.5 141 694.5 123 694.5 123C694.5 123 686.477 126.026 680.5 127C675.682 127.785 667.5 128.5 667.5 128.5C667.5 128.5 672.571 139.977 667.5 142C653.308 147.662 615.771 154.265 615.771 154.265L609.123 152.271C606.816 151.578 604.315 152.121 602.502 153.707L599.082 156.699C597.895 157.738 597.429 159.378 597.893 160.886L600.404 169.046C600.92 170.724 602.471 171.87 604.227 171.87H607.963C609.658 171.87 611.296 171.254 612.572 170.138L618.878 164.621C618.878 164.621 673.745 168.971 688.5 150Z" fill="white" stroke="#292839" stroke-width="1.2"/>
<path d="M646 36C656.532 29.4174 647.873 18.4624 647.873 18.4624L636.536 21.6798L635.5 31C635.5 31 637.527 29.1519 639.589 29.8537C642.746 30.9284 638 36 638 36L638.5 46.5C638.5 46.5 642 38.5 646 36Z" fill="white" stroke="#292839" stroke-width="1.2"/>
<path d="M628.198 25.7115C635.773 25.2999 645.544 21.5959 648.567 20.3827C649.085 20.175 649.314 19.5886 649.07 19.0872C647.491 15.8504 641.779 5.10812 635.447 5.00003C628.49 4.88127 620.949 15.3558 620.949 15.3558L605.328 17.0914C604.369 17.1979 604.122 18.4229 604.98 18.8626C609.831 21.3459 620.312 26.1399 628.198 25.7115Z" fill="#292839" stroke="#292839" stroke-width="1.2"/>
<path d="M627 187.5C627 187.5 641.5 175.5 651.5 170.5" stroke="#292839" stroke-width="1.2" stroke-linecap="round"/>
<path d="M627 143.5C627 143.5 628.219 148.681 629 152" stroke="#292839" stroke-width="1.2"/>
<circle r="18.4782" transform="matrix(-1 0 0 1 32.5218 188.609)" fill="#AC00FC"/>
<circle r="7.06521" transform="matrix(-1 0 0 1 12.1087 211.717)" fill="#AC00FC"/>
<path d="M77.4958 212.052L73.6516 215.96L78.8837 214.325C79.8437 214.025 80.1656 212.828 79.4856 212.087C78.9545 211.508 78.0468 211.492 77.4958 212.052Z" fill="white" stroke="#292839" stroke-width="1.2" stroke-linecap="round"/>
<path d="M70.9662 199.06L73.6414 203.845L69.0272 200.885C68.1806 200.342 68.1863 199.103 69.038 198.568C69.7032 198.15 70.5828 198.374 70.9662 199.06Z" fill="white" stroke="#292839" stroke-width="1.2" stroke-linecap="round"/>
<path d="M73.8248 208.507L74.2248 215.399L77.1198 209.132C77.6509 207.982 76.8056 206.67 75.5388 206.678C74.5494 206.685 73.7674 207.519 73.8248 208.507Z" fill="white" stroke="#292839" stroke-width="1.2" stroke-linecap="round"/>
<path d="M75.443 196.611L73.2363 203.153L72.1001 196.343C71.8916 195.093 73.0535 194.051 74.273 194.394C75.2255 194.662 75.7593 195.673 75.443 196.611Z" fill="white" stroke="#292839" stroke-width="1.2" stroke-linecap="round"/>
<path d="M68.9865 210.981L74.0283 215.697L71.8038 209.161C71.3956 207.962 69.8788 207.595 68.9671 208.474C68.2551 209.161 68.2639 210.305 68.9865 210.981Z" fill="white" stroke="#292839" stroke-width="1.2" stroke-linecap="round"/>
<path d="M79.4563 200.275L73.3476 203.491L77.2198 197.776C77.9303 196.727 79.4902 196.773 80.1371 197.862C80.6424 198.713 80.3318 199.813 79.4563 200.275Z" fill="white" stroke="#292839" stroke-width="1.2" stroke-linecap="round"/>
<path d="M67.0023 214.265L73.702 215.932L68.5783 211.305C67.6382 210.456 66.1343 210.873 65.7659 212.085C65.4781 213.031 66.0422 214.026 67.0023 214.265Z" fill="white" stroke="#292839" stroke-width="1.2" stroke-linecap="round"/>
<path d="M80.5022 203.967L73.6001 203.805L79.7643 200.695C80.8953 200.125 82.2356 200.924 82.2707 202.191C82.2982 203.18 81.4914 203.99 80.5022 203.967Z" fill="white" stroke="#292839" stroke-width="1.2" stroke-linecap="round"/>
<path d="M83.7305 191.275L74.6702 191.062L82.7619 186.98C84.2466 186.231 86.0059 187.281 86.0521 188.943C86.0881 190.242 85.029 191.305 83.7305 191.275Z" fill="white" stroke="#292839" stroke-width="1.2" stroke-linecap="round"/>
<path d="M87.472 183.047L79.6183 181.984L87.0136 179.134C88.2285 178.666 89.5643 179.445 89.7561 180.732C89.9557 182.072 88.8143 183.229 87.472 183.047Z" fill="white" stroke="#292839" stroke-width="1.2" stroke-linecap="round"/>
<path d="M92.4057 172.154L83.1148 177.484L88.7227 168.358C89.7099 166.752 91.9897 166.607 93.1727 168.075C94.2254 169.381 93.861 171.319 92.4057 172.154Z" fill="white" stroke="#292839" stroke-width="1.2" stroke-linecap="round"/>
<path d="M75.0625 176.089L80.1558 182.161L78.6152 174.387C78.3621 173.11 76.9907 172.396 75.7996 172.922C74.5603 173.468 74.1919 175.051 75.0625 176.089Z" fill="white" stroke="#292839" stroke-width="1.2" stroke-linecap="round"/>
<path d="M69.1468 186.852L74.0091 191.143L71.7423 185.067C71.3264 183.952 69.8922 183.649 69.0603 184.499C68.4105 185.164 68.45 186.237 69.1468 186.852Z" fill="white" stroke="#292839" stroke-width="1.2" stroke-linecap="round"/>
<path d="M66.7748 249.77C62.1128 240.027 71.2202 224.914 72.7014 219.56C75.8325 208.241 70.0764 200.287 74.8714 189.566C77.341 184.045 83.5825 176.76 83.5825 176.76" stroke="#292839" stroke-width="1.2" stroke-linecap="round"/>
<path d="M32.7615 148.545C33.056 149.332 31.3225 150.616 31.3225 150.616C31.3225 150.616 29.8335 148.812 29.8736 147.451C29.9166 145.99 31.7505 144.072 31.7505 144.072C31.7505 144.072 32.0202 146.563 32.7615 148.545Z" stroke="#292839" stroke-width="1.2" stroke-linecap="round"/>
<path d="M37.61 148.498C37.1166 151.159 39.4303 155.185 39.4303 155.185C39.4303 155.185 42.3814 154.115 43.1426 152.494C43.9486 150.778 42.5406 149.555 42.6679 147.663C42.8196 145.407 44.182 142.075 44.182 142.075C44.182 142.075 38.2642 144.969 37.61 148.498Z" stroke="#292839" stroke-width="1.2" stroke-linecap="round"/>
<path d="M28.3674 163.858C31.1105 163.945 34.421 167.428 34.421 167.428C34.421 167.428 31.1248 167.864 28.1886 168.528C25.6298 169.107 20.769 170.909 19.5621 171.362C19.4784 171.394 19.4039 171.302 19.4569 171.23C20.4085 169.935 25.1202 163.756 28.3674 163.858Z" fill="#292839" stroke="#292839" stroke-width="1.2" stroke-linecap="round"/>
<path d="M45.1446 173.28C39.441 167.162 28.3695 166.327 28.3695 166.327" stroke="#292839" stroke-width="1.2" stroke-linecap="round"/>
<path d="M51.4429 163.271C50.7271 166.177 47.3526 169.751 47.3526 169.751C47.3526 169.751 45.1083 165.841 45.2387 163.13C45.4159 159.447 50.1129 155.167 50.4466 154.867C50.4562 154.859 50.4689 154.862 50.473 154.874C50.5989 155.252 52.204 160.182 51.4429 163.271Z" stroke="#292839" stroke-width="1.2" stroke-linecap="round"/>
<path d="M48.1089 178.887C48.1089 178.887 45.846 168.549 48.6291 161.747" stroke="#292839" stroke-width="1.2" stroke-linecap="round"/>
<path d="M39.1011 163.284C39.1011 163.284 38.417 154.797 41.2002 147.995" stroke="#292839" stroke-width="1.2" stroke-linecap="round"/>
<path d="M65.5544 227.538C60.0576 215.51 60.1207 208.246 55.5807 196.593C51.1276 185.163 48.3216 178.819 42.3507 168.104C38.3513 160.927 34.9697 158.662 31.2167 150.252" stroke="#292839" stroke-width="1.2" stroke-linecap="round"/>
<path d="M65.998 231.001C63.7872 215.761 58.9938 207.826 57.1333 192.538C55.3368 177.777 57.3175 171.51 56.2431 154.47" stroke="#292839" stroke-width="1.2" stroke-linecap="round"/>
<path d="M65.6575 228.881C61.7154 222.365 56.9491 209.554 54.8751 206.151C47.136 193.453 41.6946 189.766 31.974 175.729" stroke="#292839" stroke-width="1.2" stroke-linecap="round"/>
<path d="M60.8658 183.843C58.8859 189.558 56.9396 188.649 56.9396 188.649C56.9396 188.649 56.4615 187.39 57.4633 185.907C58.2838 184.692 60.0947 183.931 60.7231 183.695C60.8138 183.661 60.8975 183.752 60.8658 183.843Z" fill="#292839" stroke="#292839" stroke-width="1.2" stroke-linecap="round"/>
<path d="M46.5555 201.643C51.6517 204.899 52.6155 202.98 52.6155 202.98C52.6155 202.98 52.2101 201.695 50.5048 201.153C49.1079 200.708 47.2151 201.234 46.5759 201.438C46.4836 201.468 46.4739 201.59 46.5555 201.643Z" fill="#292839" stroke="#292839" stroke-width="1.2" stroke-linecap="round"/>
<path d="M60.4308 173.536C58.7275 181.119 56.5246 179.733 56.5246 179.733C56.5246 179.733 56.5242 178.329 57.4987 176.407C58.2735 174.88 59.7076 173.793 60.2631 173.412C60.3484 173.353 60.4535 173.435 60.4308 173.536Z" fill="white" stroke="#292839" stroke-width="1.2" stroke-linecap="round"/>
<path d="M40.5068 193.285C46.5443 198.179 47.4135 195.726 47.4135 195.726C47.4135 195.726 46.5435 194.624 44.5878 193.721C43.033 193.003 41.2339 193.039 40.5615 193.084C40.4583 193.091 40.4264 193.22 40.5068 193.285Z" fill="white" stroke="#292839" stroke-width="1.2" stroke-linecap="round"/>
<path d="M59.5935 165.378C59.8612 170.928 56.448 171.418 56.448 171.418C56.448 171.418 56.4476 170.014 57.4221 168.093C58.1716 166.615 59.0443 165.661 59.4075 165.3C59.4767 165.231 59.5888 165.28 59.5935 165.378Z" fill="white" stroke="#292839" stroke-width="1.2" stroke-linecap="round"/>
<path d="M36.1058 186.365C39.3362 190.886 42.3182 189.154 42.3182 189.154C42.3182 189.154 41.4482 188.053 39.4925 187.149C37.9884 186.455 36.7124 186.247 36.2032 186.189C36.1062 186.177 36.049 186.286 36.1058 186.365Z" fill="white" stroke="#292839" stroke-width="1.2" stroke-linecap="round"/>
<path d="M61.1354 155.991C60.1071 159.796 56.4691 161.537 56.4691 161.537C56.4691 161.537 56.7106 160.23 57.4432 158.212C58.0715 156.481 60.3696 155.963 61.0111 155.85C61.0924 155.836 61.1569 155.911 61.1354 155.991Z" fill="white" stroke="#292839" stroke-width="1.2" stroke-linecap="round"/>
<path d="M29.0771 179.955C32.2432 182.304 36.177 181.415 36.177 181.415C36.177 181.415 35.1771 180.539 33.3513 179.41C31.7854 178.441 29.6607 179.459 29.0876 179.768C29.0149 179.807 29.0108 179.906 29.0771 179.955Z" fill="white" stroke="#292839" stroke-width="1.2" stroke-linecap="round"/>
<path d="M60.4417 148.79C59.7487 152.645 56.3124 154.697 56.3124 154.697C56.3124 154.697 57.3492 153.647 57.8934 151.57C58.3354 149.883 59.7641 148.961 60.2849 148.674C60.3666 148.629 60.4582 148.698 60.4417 148.79Z" fill="white" stroke="#292839" stroke-width="1.2" stroke-linecap="round"/>
<path d="M25.1574 173.875C28.0913 176.471 32.0596 175.95 32.0596 175.95C32.0596 175.95 30.5951 175.769 28.8808 174.477C27.4882 173.428 25.7953 173.59 25.2088 173.687C25.1168 173.703 25.0875 173.813 25.1574 173.875Z" fill="white" stroke="#292839" stroke-width="1.2" stroke-linecap="round"/>
<path d="M54.1191 150.845C54.4501 153.528 56.6517 154.999 56.6517 154.999C56.6517 154.999 55.9959 154.245 55.7158 152.778C55.4997 151.645 54.6534 150.985 54.2781 150.742C54.2007 150.692 54.1078 150.754 54.1191 150.845Z" fill="white" stroke="#292839" stroke-width="1.2" stroke-linecap="round"/>
<path d="M31.392 171.569C32.7954 173.879 31.9796 176.398 31.9796 176.398C31.9796 176.398 32.0274 175.4 31.3372 174.075C30.8047 173.053 31.0592 172.009 31.2032 171.586C31.2329 171.499 31.3441 171.49 31.392 171.569Z" fill="white" stroke="#292839" stroke-width="1.2" stroke-linecap="round"/>
<path d="M52.834 184.176C54.7874 189.9 56.7378 189 56.7378 189C56.7378 189 57.2218 187.744 56.2269 186.256C55.4121 185.037 53.6047 184.268 52.9774 184.029C52.8868 183.995 52.8027 184.085 52.834 184.176Z" fill="white" stroke="#292839" stroke-width="1.2" stroke-linecap="round"/>
<path d="M53.0644 196.925C55.08 202.627 52.9918 203.13 52.9918 203.13C52.9918 203.13 51.8329 202.444 51.6913 200.66C51.5754 199.199 52.5164 197.474 52.8607 196.898C52.9104 196.815 53.0321 196.833 53.0644 196.925Z" fill="white" stroke="#292839" stroke-width="1.2" stroke-linecap="round"/>
<path d="M52.9888 173.107C53.185 177.253 56.3412 180.15 56.3412 180.15C56.3412 180.15 56.9593 177.933 55.9644 176.446C55.164 175.249 53.7194 173.617 53.1855 173.026C53.1131 172.945 52.9837 172.999 52.9888 173.107Z" fill="white" stroke="#292839" stroke-width="1.2" stroke-linecap="round"/>
<path d="M46.0811 188.335C48.4977 191.71 47.8173 195.94 47.8173 195.94C47.8173 195.94 45.9577 194.583 45.8161 192.799C45.7022 191.364 45.8244 189.188 45.8765 188.393C45.8836 188.285 46.0183 188.247 46.0811 188.335Z" fill="white" stroke="#292839" stroke-width="1.2" stroke-linecap="round"/>
<path d="M52.9125 164.791C53.1139 168.918 56.3702 171.416 56.3702 171.416C56.3702 171.416 56.8827 169.618 55.8878 168.13C55.0874 166.933 53.6428 165.302 53.1089 164.71C53.0365 164.63 52.9072 164.684 52.9125 164.791Z" fill="white" stroke="#292839" stroke-width="1.2" stroke-linecap="round"/>
<path d="M40.9852 181.764C43.3855 185.127 42.3788 189.105 42.3788 189.105C42.3788 189.105 40.8619 188.012 40.7203 186.228C40.6063 184.793 40.7286 182.617 40.7807 181.822C40.7877 181.714 40.9225 181.676 40.9852 181.764Z" fill="white" stroke="#292839" stroke-width="1.2" stroke-linecap="round"/>
<path d="M52.3887 155.297C53.275 162.843 56.3913 161.535 56.3913 161.535C56.3913 161.535 56.9038 159.737 55.9089 158.249C55.0857 157.018 53.1945 155.627 52.5666 155.183C52.4847 155.125 52.377 155.198 52.3887 155.297Z" fill="white" stroke="#292839" stroke-width="1.2" stroke-linecap="round"/>
<path d="M35.511 173.989C39.4935 180.46 36.2375 181.365 36.2375 181.365C36.2375 181.365 34.7205 180.272 34.5789 178.488C34.4618 177.012 35.0829 174.747 35.3007 174.01C35.3291 173.914 35.4584 173.904 35.511 173.989Z" fill="white" stroke="#292839" stroke-width="1.2" stroke-linecap="round"/>
<path d="M64.9741 220.394C64.9741 220.394 65.6176 217.779 68.61 214.634" stroke="#292839" stroke-width="1.2" stroke-linecap="round"/>
<path d="M65.9751 208.44C65.9751 208.44 66.6186 205.825 69.611 202.68" stroke="#292839" stroke-width="1.2" stroke-linecap="round"/>
<path d="M67.1085 197.073C67.1085 197.073 71.8626 193.529 75.6874 185.875" stroke="#292839" stroke-width="1.2" stroke-linecap="round"/>
<path d="M70.4279 176.262C70.4279 176.262 75.011 170.597 80.7123 167.147" stroke="#292839" stroke-width="1.2" stroke-linecap="round"/>
<path d="M65.1953 212.691C65.1953 212.691 63.4852 207.869 63.0184 203.553" stroke="#292839" stroke-width="1.2" stroke-linecap="round"/>
<path d="M69.802 252.405C67.0322 236.057 62.7503 228.527 65.4639 211.642C67.7035 197.705 66.7438 177.712 76.3824 161.645" stroke="#292839" stroke-width="1.2" stroke-linecap="round"/>
<circle cx="70.3712" cy="214.236" r="0.602053" transform="rotate(-12.7384 70.3712 214.236)" fill="#292839"/>
<circle cx="71.3718" cy="202.282" r="0.602053" transform="rotate(-12.7384 71.3718 202.282)" fill="#292839"/>
<circle cx="76.8621" cy="185.61" r="0.602053" transform="rotate(-12.7384 76.8621 185.61)" fill="#292839"/>
<circle cx="81.6317" cy="168.483" r="0.602053" transform="rotate(-12.7384 81.6317 168.483)" fill="#292839"/>
<circle cx="75.7639" cy="188.944" r="0.602053" transform="rotate(-12.7384 75.7639 188.944)" fill="#292839"/>
<circle cx="79.5482" cy="170.188" r="0.602053" transform="rotate(-12.7384 79.5482 170.188)" fill="#292839"/>
<circle r="0.602053" transform="matrix(-0.814992 -0.579472 -0.579472 0.814992 61.5762 202.309)" fill="#292839"/>
<circle r="0.602053" transform="matrix(-0.814992 -0.579472 -0.579472 0.814992 61.9308 200.35)" fill="#292839"/>
<circle cx="71.6959" cy="210.541" r="0.90308" transform="rotate(-12.7384 71.6959 210.541)" fill="#292839"/>
<circle cx="69.5747" cy="210.712" r="0.602053" transform="rotate(-12.7384 69.5747 210.712)" fill="#292839"/>
<circle cx="71.8672" cy="212.663" r="0.602053" transform="rotate(-12.7384 71.8672 212.663)" fill="#292839"/>
<circle cx="71.5612" cy="200.387" r="0.602053" transform="rotate(-12.7384 71.5612 200.387)" fill="#292839"/>
<circle cx="77.2782" cy="183.355" r="0.90308" transform="rotate(-12.7384 77.2782 183.355)" fill="#292839"/>
<circle cx="82.5022" cy="165.508" r="0.90308" transform="rotate(-12.7384 82.5022 165.508)" fill="#292839"/>
<circle r="0.923111" transform="matrix(-0.814992 -0.579472 -0.579472 0.814992 61.355 198.476)" fill="#292839"/>
<circle cx="68.799" cy="212.74" r="0.602053" transform="rotate(-12.7384 68.799 212.74)" fill="#292839"/>
<circle cx="69.7995" cy="200.785" r="0.602053" transform="rotate(-12.7384 69.7995 200.785)" fill="#292839"/>
<circle cx="75.2892" cy="184.113" r="0.602053" transform="rotate(-12.7384 75.2892 184.113)" fill="#292839"/>
<circle cx="80.2477" cy="165.092" r="0.602053" transform="rotate(-12.7384 80.2477 165.092)" fill="#292839"/>
<circle cx="72.4296" cy="187.846" r="0.602053" transform="rotate(-12.7384 72.4296 187.846)" fill="#292839"/>
<circle cx="78.1648" cy="166.798" r="0.602053" transform="rotate(-12.7384 78.1648 166.798)" fill="#292839"/>
<circle r="0.602053" transform="matrix(-0.814992 -0.579472 -0.579472 0.814992 63.6043 201.534)" fill="#292839"/>
<path d="M67.596 190.544C67.596 190.544 65.8859 185.723 65.419 181.407" stroke="#292839" stroke-width="1.2" stroke-linecap="round"/>
<path d="M71.7813 171.327C71.7813 171.327 72.0603 167.662 71.5935 163.345" stroke="#292839" stroke-width="1.2" stroke-linecap="round"/>
<circle r="0.602053" transform="matrix(-0.814992 -0.579472 -0.579472 0.814992 63.9774 180.162)" fill="#292839"/>
<circle r="0.602053" transform="matrix(-0.814992 -0.579472 -0.579472 0.814992 70.2195 163.293)" fill="#292839"/>
<circle r="0.602053" transform="matrix(-0.169376 -0.985551 -0.985551 0.169376 75.2809 159.892)" fill="#292839"/>
<circle r="0.602053" transform="matrix(-0.814992 -0.579472 -0.579472 0.814992 64.3317 178.204)" fill="#292839"/>
<circle r="0.602053" transform="matrix(-0.814992 -0.579472 -0.579472 0.814992 70.5063 160.142)" fill="#292839"/>
<circle r="0.602053" transform="matrix(-0.169376 -0.985551 -0.985551 0.169376 77.3679 158.032)" fill="#292839"/>
<circle r="0.602053" transform="matrix(-0.814992 -0.579472 -0.579472 0.814992 66.0049 179.388)" fill="#292839"/>
<circle r="0.602053" transform="matrix(-0.814992 -0.579472 -0.579472 0.814992 72.1794 161.327)" fill="#292839"/>
<circle r="0.602053" transform="matrix(-0.814992 -0.579472 -0.579472 0.814992 72.8338 163.936)" fill="#292839"/>
<circle r="0.602053" transform="matrix(-0.169376 -0.985551 -0.985551 0.169376 77.9856 161.227)" fill="#292839"/>
<path d="M93.7851 269.759C91.339 268.229 88.6876 268.363 88.6876 268.363C88.6876 268.363 41.9135 265.557 53.6962 272.55C57.5411 274.832 60.3812 275.595 64.7552 276.475C73.2447 278.185 73.3087 275.167 83.6765 275.167C88.219 275.167 97.6464 272.175 93.7851 269.759Z" fill="#292839" stroke="#292839" stroke-width="1.2"/>
<path d="M77.5852 239.047L75.1459 232.774C74.6305 231.449 73.3544 230.576 71.9325 230.576H61.2102C59.8764 230.576 58.6621 231.345 58.0926 232.551L54.924 239.261C54.1579 240.883 52.7795 242.135 51.2235 243.028C47.3851 245.231 40.3588 250.592 39.0872 260.795C37.3205 274.97 50.8299 273.336 65.0714 274.446C78.805 275.517 92.4131 271.382 92.9828 266.714C94.6311 253.207 85.8078 245.967 81.247 243.172C79.6437 242.189 78.2668 240.8 77.5852 239.047Z" fill="white" stroke="#292839" stroke-width="1.2" stroke-linecap="round"/>
<path d="M81.2607 243.087C81.2607 243.087 66.5086 248.174 50.739 243.087" stroke="#292839" stroke-width="1.2" stroke-linecap="round"/>
<path d="M85.2173 245.87C85.2173 245.87 67.3316 252.66 47.913 245.348" stroke="#292839" stroke-width="1.2" stroke-linecap="round"/>
<path d="M619 115C618.057 112.643 618 96.5 618 96.5L623.5 123C623.5 123 617.684 125.449 618 124.5C619 121.5 621 120 619 115Z" fill="#292839"/>
</svg>
