<svg width="60" height="60" viewBox="0 0 60 60" fill="none" xmlns="http://www.w3.org/2000/svg">
<path fill-rule="evenodd" clip-rule="evenodd" d="M6.20827 41.2468C9.85226 41.2468 12.484 44.0937 12.484 47.415C12.484 50.8719 9.85226 53.4477 6.20827 53.4477C2.56429 53.4477 0 50.8719 0 47.415C0 44.0937 2.56429 41.2468 6.20827 41.2468ZM35.9092 6C49.4054 6 60 16.5063 60 29.7916C60 43.0092 49.4054 53.4477 35.9092 53.4477C22.413 53.4477 11.8184 43.0092 11.8184 29.7916C11.8184 16.5063 22.413 6 35.9092 6ZM35.9092 43.2125C43.2647 43.2125 48.8656 37.5188 48.8656 29.7916C48.8656 21.9966 43.2647 16.2351 35.9092 16.2351C28.5538 16.2351 22.9528 21.9966 22.9528 29.7916C22.9528 37.5188 28.5538 43.2125 35.9092 43.2125Z" fill="#AC00FC"/>
</svg>
