<svg width="194" height="60" viewBox="0 0 194 60" fill="none" xmlns="http://www.w3.org/2000/svg">
<path fill-rule="evenodd" clip-rule="evenodd" d="M86.0961 52.0601C88.0083 52.0601 89.3892 53.5534 89.3892 55.2955C89.3892 57.1088 88.0083 58.4599 86.0961 58.4599C84.184 58.4599 82.8384 57.1088 82.8384 55.2955C82.8384 53.5534 84.184 52.0601 86.0961 52.0601Z" fill="#AC00FC"/>
<path fill-rule="evenodd" clip-rule="evenodd" d="M103.965 40.1848C104.461 40.1848 104.815 40.2204 105.24 40.327L104.992 46.0158H103.965C99.9993 46.0158 97.8393 48.0779 97.8393 52.7V58.2821H92.1737V40.4337H97.8393V43.8469C99.114 41.7136 101.062 40.1848 103.965 40.1848Z" fill="#AC00FC"/>
<path fill-rule="evenodd" clip-rule="evenodd" d="M120.118 33.9272C127.2 33.9272 132.76 39.4382 132.76 46.4069C132.76 53.34 127.2 58.8155 120.118 58.8155C113.037 58.8155 107.477 53.34 107.477 46.4069C107.477 39.4382 113.037 33.9272 120.118 33.9272ZM120.118 53.4467C123.978 53.4467 126.917 50.4601 126.917 46.4069C126.917 42.3181 123.978 39.2959 120.118 39.2959C116.259 39.2959 113.32 42.3181 113.32 46.4069C113.32 50.4601 116.259 53.4467 120.118 53.4467Z" fill="#AC00FC"/>
<path fill-rule="evenodd" clip-rule="evenodd" d="M144.587 53.8378C146.392 53.8378 147.844 52.8778 148.446 50.709L153.651 51.8467C152.766 56.0777 149.013 58.8154 144.587 58.8154C139.275 58.8154 134.884 55.0111 134.884 49.3579C134.884 43.7403 139.275 39.9003 144.587 39.9003C148.907 39.9003 152.66 42.5669 153.651 46.7624L148.34 48.0424C147.844 45.8735 146.392 44.878 144.587 44.878C142.037 44.878 140.337 46.7624 140.337 49.3579C140.337 51.9889 142.037 53.8378 144.587 53.8378Z" fill="#AC00FC"/>
<path fill-rule="evenodd" clip-rule="evenodd" d="M175.992 58.2821H168.733L162.961 51.8467H161.934V58.2821H156.269V32.6828H161.934V46.5135H162.713L168.343 40.4337H175.177L167.387 48.9312L175.992 58.2821Z" fill="#AC00FC"/>
<path fill-rule="evenodd" clip-rule="evenodd" d="M176.087 53.6483L181.611 52.5105C181.859 54.0394 183.24 54.6083 184.762 54.6083C186.25 54.6083 187.064 53.9683 187.064 53.1861C187.064 52.5817 186.604 52.1194 185.294 51.8706L181.682 51.1595C178.389 50.555 176.512 48.7773 176.512 45.9685C176.512 42.3064 179.663 39.9242 184.16 39.9242C188.587 39.9242 191.526 41.9508 192.234 45.0441L187.064 46.0752C186.887 44.973 185.825 43.9774 184.09 43.9774C182.567 43.9774 182.071 44.7241 182.071 45.3641C182.071 45.8618 182.284 46.3596 183.417 46.6085L187.595 47.4618C190.959 48.1729 192.517 50.1995 192.517 52.8305C192.517 56.7771 189.118 58.8393 184.444 58.8393C180.265 58.8393 176.689 57.3104 176.087 53.6483Z" fill="#AC00FC"/>
<path fill-rule="evenodd" clip-rule="evenodd" d="M79.4906 27.4174H73.825V1.81807H79.4906V27.4174Z" fill="#AC00FC"/>
<path fill-rule="evenodd" clip-rule="evenodd" d="M88.9289 27.4174H83.2634V9.569H88.9289V27.4174Z" fill="#AC00FC"/>
<path fill-rule="evenodd" clip-rule="evenodd" d="M86.0961 1.07143C88.0083 1.07143 89.3892 2.56472 89.3892 4.3069C89.3892 6.12019 88.0083 7.47127 86.0961 7.47127C84.184 7.47127 82.8384 6.12019 82.8384 4.3069C82.8384 2.56472 84.184 1.07143 86.0961 1.07143Z" fill="#AC00FC"/>
<path fill-rule="evenodd" clip-rule="evenodd" d="M101.853 22.9731C103.659 22.9731 105.111 22.0131 105.713 19.8443L110.918 20.982C110.033 25.213 106.28 27.9507 101.853 27.9507C96.542 27.9507 92.1512 24.1464 92.1512 18.4932C92.1512 12.8756 96.542 9.03566 101.853 9.03566C106.173 9.03566 109.927 11.7023 110.918 15.8977L105.607 17.1777C105.111 15.0088 103.659 14.0133 101.853 14.0133C99.3039 14.0133 97.6043 15.8977 97.6043 18.4932C97.6043 21.1242 99.3039 22.9731 101.853 22.9731Z" fill="#AC00FC"/>
<path fill-rule="evenodd" clip-rule="evenodd" d="M131.601 18.4932V19.9509H118.57C119.03 22.0842 120.482 23.3997 122.394 23.3997C123.704 23.3997 125.227 23.0798 126.183 21.3376L131.211 22.3687C129.689 26.1375 126.466 27.9507 122.394 27.9507C117.26 27.9507 113.011 24.1464 113.011 18.4932C113.011 12.8756 117.26 9.03566 122.43 9.03566C127.458 9.03566 131.495 12.6622 131.601 18.4932ZM122.43 13.6578C120.836 13.6578 119.207 14.6533 118.676 16.4666H126.006C125.475 14.5466 124.059 13.6578 122.43 13.6578Z" fill="#AC00FC"/>
<path fill-rule="evenodd" clip-rule="evenodd" d="M145.659 9.03566C149.801 9.03566 152.563 11.9867 152.563 16.4666V27.4174H146.933V17.6754C146.933 15.5777 145.694 14.1555 143.888 14.1555C141.657 14.1555 140.205 15.6844 140.205 19.1332V27.4174H134.54V9.56898H140.205V11.2756C141.551 9.85342 143.428 9.03566 145.659 9.03566Z" fill="#AC00FC"/>
<path fill-rule="evenodd" clip-rule="evenodd" d="M155.219 22.7598L160.743 21.622C160.991 23.1509 162.372 23.7197 163.895 23.7197C165.382 23.7197 166.196 23.0798 166.196 22.2975C166.196 21.6931 165.736 21.2309 164.426 20.982L160.814 20.2709C157.521 19.6665 155.644 17.8888 155.644 15.08C155.644 11.4178 158.796 9.03566 163.293 9.03566C167.719 9.03566 170.658 11.0623 171.366 14.1555L166.196 15.1866C166.019 14.0844 164.957 13.0889 163.222 13.0889C161.699 13.0889 161.203 13.8355 161.203 14.4755C161.203 14.9733 161.416 15.4711 162.549 15.7199L166.727 16.5732C170.091 17.2843 171.649 19.311 171.649 21.942C171.649 25.8886 168.25 27.9507 163.576 27.9507C159.397 27.9507 155.821 26.4219 155.219 22.7598Z" fill="#AC00FC"/>
<path fill-rule="evenodd" clip-rule="evenodd" d="M192.403 18.4932V19.9509H179.372C179.832 22.0842 181.284 23.3997 183.196 23.3997C184.506 23.3997 186.029 23.0798 186.985 21.3376L192.013 22.3687C190.49 26.1375 187.268 27.9507 183.196 27.9507C178.062 27.9507 173.812 24.1464 173.812 18.4932C173.812 12.8756 178.062 9.03566 183.231 9.03566C188.26 9.03566 192.296 12.6622 192.403 18.4932ZM183.231 13.6578C181.638 13.6578 180.009 14.6533 179.478 16.4666H186.808C186.277 14.5466 184.86 13.6578 183.231 13.6578Z" fill="#AC00FC"/>
<path fill-rule="evenodd" clip-rule="evenodd" d="M7.58723 46.6197C11.4115 46.6197 14.1734 49.6063 14.1734 53.0907C14.1734 56.7172 11.4115 59.4194 7.58723 59.4194C3.76298 59.4194 1.07184 56.7172 1.07184 53.0907C1.07184 49.6063 3.76298 46.6197 7.58723 46.6197ZM38.7574 9.64285C52.9213 9.64285 64.04 20.6648 64.04 34.6022C64.04 48.4685 52.9213 59.4194 38.7574 59.4194C24.5936 59.4194 13.4749 48.4685 13.4749 34.6022C13.4749 20.6648 24.5936 9.64285 38.7574 9.64285ZM38.7574 48.6819C46.4768 48.6819 52.3548 42.7087 52.3548 34.6022C52.3548 26.4247 46.4768 20.3804 38.7574 20.3804C31.0381 20.3804 25.1601 26.4247 25.1601 34.6022C25.1601 42.7087 31.0381 48.6819 38.7574 48.6819Z" fill="#AC00FC"/>
</svg>
