<svg width="33" height="40" viewBox="0 0 33 40" fill="none" xmlns="http://www.w3.org/2000/svg">
<path d="M1.37397 3.33126C1.37678 1.67614 2.72079 0.334236 4.37591 0.334036L24.5333 0.331592C24.8105 0.331558 25.0348 0.556224 25.0344 0.833397L25.0247 6.56026C25.0236 7.20172 25.5427 7.72166 26.1842 7.72158L31.4682 7.72094C31.7454 7.72091 31.9697 7.94558 31.9692 8.22275L31.921 36.6682C31.9182 38.3233 30.5742 39.6652 28.9191 39.6654L4.30932 39.6684C2.65419 39.6686 1.31472 38.327 1.31752 36.6719L1.37397 3.33126Z" fill="white" stroke="#CECDD9" stroke-width="0.659601"/>
<mask id="mask0" mask-type="alpha" maskUnits="userSpaceOnUse" x="0" y="0" width="33" height="41">
<path d="M1.41698 3.33054C1.42171 1.67541 2.76728 0.333546 4.42241 0.333387L24.5431 0.331456C24.8203 0.33143 25.0444 0.556101 25.0436 0.833274L25.0272 6.56069C25.0254 7.20215 25.5439 7.72211 26.1854 7.72205L31.4589 7.72154C31.7361 7.72151 31.9601 7.94618 31.9593 8.22336L31.8781 36.6713C31.8733 38.3264 30.5278 39.6683 28.8726 39.6684L4.31004 39.6708C2.65492 39.6709 1.31701 38.3293 1.32173 36.6742L1.41698 3.33054Z" fill="white" stroke="black" stroke-width="0.659601"/>
</mask>
<g mask="url(#mask0)">
<ellipse rx="25.706" ry="25.7619" transform="matrix(1 -9.78625e-05 -0.00286006 0.999999 6.34329 49.0401)" fill="#CECDD9"/>
</g>
<path d="M27.0942 5.49303L27.1027 0.497559C27.103 0.338688 27.3045 0.270214 27.4011 0.396184L31.2307 5.39119C31.3146 5.50058 31.2363 5.65887 31.0984 5.65888L27.2603 5.65935C27.1684 5.65936 27.0941 5.5849 27.0942 5.49303Z" stroke="#CECDD9" stroke-width="0.659601"/>
<path d="M1.33511 10.7673L20.6233 10.7654C21.1301 10.7654 21.5403 11.1762 21.5394 11.683L21.5305 17.0158C21.5297 17.5227 21.1181 17.9336 20.6113 17.9336L1.32314 17.9355L1.33511 10.7673Z" fill="white" stroke="#CECDD9" stroke-width="0.659601"/>
<path d="M10.8275 32.317L7.92595 32.3174L7.92078 35.3709L7.009 35.371L7.02071 28.4566L11.3042 28.4561L11.3029 29.2064L7.93122 29.2069L7.92721 31.5718L10.8288 31.5714L10.8275 32.317ZM13.2015 35.3702L12.323 35.3704L12.3317 30.2321L13.2102 30.232L13.2015 35.3702ZM12.2628 28.8692C12.263 28.7267 12.3059 28.6064 12.3916 28.5082C12.4804 28.4101 12.6103 28.361 12.7812 28.361C12.9522 28.361 13.0819 28.41 13.1704 28.5081C13.2589 28.6063 13.303 28.7266 13.3028 28.869C13.3025 29.0115 13.258 29.1302 13.1692 29.2252C13.0804 29.3202 12.9505 29.3677 12.7795 29.3677C12.6086 29.3678 12.4789 29.3203 12.3904 29.2253C12.3051 29.1303 12.2625 29.0116 12.2628 28.8692ZM15.5665 35.37L14.6879 35.3701L14.7003 28.0758L15.5788 28.0757L15.5665 35.37ZM19.109 35.4645C18.4125 35.4646 17.8461 35.2367 17.41 34.7809C16.9739 34.3219 16.7565 33.7093 16.7578 32.9431L16.7581 32.7817C16.7589 32.272 16.8563 31.8177 17.05 31.4187C17.247 31.0166 17.5198 30.7032 17.8684 30.4784C18.2202 30.2504 18.6003 30.1363 19.0088 30.1363C19.6768 30.1362 20.1956 30.3562 20.5653 30.7962C20.9349 31.2362 21.1191 31.8662 21.1177 32.6862L21.1171 33.0518L17.6361 33.0523C17.6479 33.5588 17.7945 33.9688 18.0757 34.2822C18.3601 34.5924 18.7208 34.7475 19.1577 34.7474C19.4679 34.7474 19.7308 34.684 19.9463 34.5574C20.1618 34.4307 20.3504 34.2629 20.5123 34.0539L21.0482 34.4718C20.6165 35.1335 19.9701 35.4644 19.109 35.4645ZM19.0075 30.8581C18.6529 30.8582 18.3551 30.988 18.1141 31.2476C17.873 31.5041 17.7236 31.865 17.6659 32.3304L20.2397 32.3301L20.2399 32.2636C20.2153 31.8173 20.0956 31.4722 19.8807 31.2284C19.6658 30.9815 19.3748 30.8581 19.0075 30.8581Z" fill="white"/>
</svg>
