<svg width="92" height="109" viewBox="0 0 92 109" fill="none" xmlns="http://www.w3.org/2000/svg">
<path fill-rule="evenodd" clip-rule="evenodd" d="M32 2.00015C36 3.00015 36 10.0002 36 10.0002C36 10.0002 37.2536 109.627 34 108C33.7765 107.888 22.7735 108 22 108C14 108 22 3.00015 22 3.00015C24 2.00015 28 1.00015 32 2.00015Z" fill="white" stroke="#F0F0F4" stroke-width="1.5" stroke-linejoin="round"/>
<path fill-rule="evenodd" clip-rule="evenodd" d="M27 8.11923C27 4.39928 30.3502 1.57581 34.0163 2.20593L84.3551 10.8579C88.1942 11.5178 91 14.8469 91 18.7423V100C91 104.418 87.4183 108 83 108H33C29.6863 108 27 105.314 27 102V8.11923Z" fill="white" stroke="#F0F0F4" stroke-width="1.5" stroke-linejoin="round"/>
<path fill-rule="evenodd" clip-rule="evenodd" d="M27 10.0534C27 5.75785 22.6182 2.85385 18.6622 4.52755L5.88288 9.93417C2.92312 11.1864 1 14.0882 1 17.3019V100C1 104.418 4.58172 108 9 108H21C24.3137 108 27 105.314 27 102V10.0534Z" fill="white" stroke="#F0F0F4" stroke-width="1.5" stroke-linejoin="round"/>
</svg>
